<svg width="23" height="22" viewBox="0 0 23 22" fill="none" xmlns="http://www.w3.org/2000/svg">
<path d="M18.75 13C18.75 13.4142 18.4142 13.75 18 13.75L5 13.75C4.58579 13.75 4.25 13.4142 4.25 13C4.25 12.5858 4.58579 12.25 5 12.25L18 12.25C18.4142 12.25 18.75 12.5858 18.75 13Z" fill="#2E2D29"/>
<path d="M18 17.75C18.4142 17.75 18.75 17.4142 18.75 17C18.75 16.5858 18.4142 16.25 18 16.25L5 16.25C4.58579 16.25 4.25 16.5858 4.25 17C4.25 17.4142 4.58579 17.75 5 17.75L18 17.75Z" fill="#2E2D29"/>
<path fill-rule="evenodd" clip-rule="evenodd" d="M6 0.25C6.41421 0.25 6.75 0.585786 6.75 1V2H16.25V1C16.25 0.585786 16.5858 0.25 17 0.25C17.4142 0.25 17.75 0.585786 17.75 1V2H19C21.2091 2 23 3.79086 23 6V18C23 20.2091 21.2091 22 19 22H4C1.79086 22 0 20.2091 0 18V6C0 3.79086 1.79086 2 4 2H5.25V1C5.25 0.585786 5.58579 0.25 6 0.25ZM16.25 3.5V5C16.25 5.41421 16.5858 5.75 17 5.75C17.4142 5.75 17.75 5.41421 17.75 5V3.5H19C20.3807 3.5 21.5 4.61929 21.5 6V8.25H1.5V6C1.5 4.61929 2.61929 3.5 4 3.5H5.25V5C5.25 5.41421 5.58579 5.75 6 5.75C6.41421 5.75 6.75 5.41421 6.75 5V3.5H16.25ZM1.5 9.75V18C1.5 19.3807 2.61929 20.5 4 20.5H19C20.3807 20.5 21.5 19.3807 21.5 18V9.75H1.5Z" fill="#2E2D29"/>
</svg>
