<svg width="24" height="24" viewBox="0 0 24 24" fill="none" xmlns="http://www.w3.org/2000/svg">
<path d="M9.66408 12.835L6.9301 17.2777H4.87961C3.85437 17.2777 3 16.4233 3 15.3981V8.64854L9.66408 12.835ZM12.5689 11.9806C12.9961 11.7243 18.3786 8.39223 20.3437 7.11068C20.0874 6.51262 19.4039 6 18.635 6H4.87961C4.11068 6 3.51262 6.42718 3.17087 7.11068L10.9456 11.9806C11.4583 12.3223 12.1417 12.3223 12.5689 11.9806ZM13.3379 13.1767C12.9107 13.5184 12.3126 13.6893 11.8 13.6893C11.2019 13.6893 10.6893 13.5184 10.1767 13.1767L9.66408 12.835L6.9301 17.2777H18.2932L15.132 12.066C14.7903 12.2369 13.4233 13.1767 13.3379 13.1767ZM15.132 12.066L18.2932 17.2777H18.635C19.6602 17.2777 20.5146 16.4233 20.5146 15.3981V8.73398C19.1476 9.67379 16.7553 11.1262 15.132 12.066Z" fill="#2E2D29"/>
</svg>
