<svg width="25" height="20" viewBox="0 0 25 20" fill="none" xmlns="http://www.w3.org/2000/svg">
<path fill-rule="evenodd" clip-rule="evenodd" d="M8.5 3C8.5 3.82843 7.82843 4.5 7 4.5C6.17157 4.5 5.5 3.82843 5.5 3C5.5 2.17157 6.17157 1.5 7 1.5C7.82843 1.5 8.5 2.17157 8.5 3ZM9.90549 3.75C9.57246 5.04392 8.39788 6 7 6C5.60006 6 4.42409 5.0411 4.09305 3.74428C4.06256 3.74806 4.03151 3.75 4 3.75L1 3.75C0.585786 3.75 0.25 3.41421 0.25 3C0.25 2.58579 0.585787 2.25 1 2.25L4 2.25C4.03151 2.25 4.06256 2.25194 4.09305 2.25572C4.42409 0.958896 5.60006 0 7 0C8.39788 0 9.57246 0.95608 9.90549 2.25H24C24.4142 2.25 24.75 2.58579 24.75 3C24.75 3.41421 24.4142 3.75 24 3.75H9.90549ZM7 20C8.39788 20 9.57246 19.0439 9.90549 17.75H24C24.4142 17.75 24.75 17.4142 24.75 17C24.75 16.5858 24.4142 16.25 24 16.25H9.90549C9.57246 14.9561 8.39788 14 7 14C5.60006 14 4.42409 14.9589 4.09305 16.2557C4.06256 16.2519 4.03151 16.25 4 16.25H1C0.585787 16.25 0.25 16.5858 0.25 17C0.25 17.4142 0.585786 17.75 1 17.75H4C4.03151 17.75 4.06256 17.7481 4.09305 17.7443C4.42409 19.0411 5.60006 20 7 20ZM7 18.5C7.82843 18.5 8.5 17.8284 8.5 17C8.5 16.1716 7.82843 15.5 7 15.5C6.17157 15.5 5.5 16.1716 5.5 17C5.5 17.8284 6.17157 18.5 7 18.5ZM19.9069 10.7443C19.5759 12.0411 18.3999 13 17 13C15.6001 13 14.4241 12.0411 14.0931 10.7443C14.0626 10.7481 14.0315 10.75 14 10.75L1 10.75C0.585786 10.75 0.25 10.4142 0.25 10C0.25 9.58579 0.585787 9.25 1 9.25L14 9.25C14.0315 9.25 14.0626 9.25194 14.0931 9.25572C14.4241 7.95889 15.6001 7 17 7C18.3999 7 19.5759 7.95889 19.9069 9.25572C19.9374 9.25194 19.9685 9.25 20 9.25H24C24.4142 9.25 24.75 9.58579 24.75 10C24.75 10.4142 24.4142 10.75 24 10.75H20C19.9685 10.75 19.9374 10.7481 19.9069 10.7443ZM18.5 10C18.5 10.8284 17.8284 11.5 17 11.5C16.1716 11.5 15.5 10.8284 15.5 10C15.5 9.17157 16.1716 8.5 17 8.5C17.8284 8.5 18.5 9.17157 18.5 10Z" fill="#2E2D29"/>
</svg>
