<svg width="29" height="23" viewBox="0 0 29 23" fill="none" xmlns="http://www.w3.org/2000/svg">
<path fill-rule="evenodd" clip-rule="evenodd" d="M12.9697 5.5C12.9697 7.8196 11.0893 9.7 8.76973 9.7C6.45013 9.7 4.56973 7.8196 4.56973 5.5C4.56973 3.1804 6.45013 1.3 8.76973 1.3C11.0893 1.3 12.9697 3.1804 12.9697 5.5ZM14.2697 5.5C14.2697 8.53757 11.8073 11 8.76973 11C5.73216 11 3.26973 8.53757 3.26973 5.5C3.26973 2.46243 5.73216 0 8.76973 0C11.8073 0 14.2697 2.46243 14.2697 5.5ZM11.5424 12.7C11.3521 12.7 11.1641 12.7418 10.9917 12.8224C10.4132 13.0929 9.62494 13.2526 8.78488 13.2526C7.94483 13.2526 7.15649 13.0929 6.5779 12.8224C6.40552 12.7418 6.21755 12.7 6.02726 12.7C4.12226 12.7 2.53995 13.2954 1.45915 14.5438C0.406727 15.7595 0 17.4003 0 19.1579C0 19.7261 0.146291 20.5054 0.680201 21.1704C1.25629 21.888 2.1452 22.3 3.26969 22.3H14.6939C15.7816 22.3 16.5824 21.7481 17.0427 20.9731C17.1706 20.7578 17.2698 20.5308 17.3459 20.3H25.9011C26.9028 20.3 27.6523 19.7955 28.084 19.0783C28.4674 18.4412 28.5695 17.701 28.5695 17.1053C28.5695 15.3788 28.2009 13.9064 27.1249 12.9132C26.0719 11.9411 24.6271 11.7 23.1642 11.7C22.9761 11.7 22.7902 11.7408 22.6194 11.8197C22.143 12.0396 21.4821 12.1737 20.7695 12.1737C20.0569 12.1737 19.396 12.0396 18.9195 11.8197C18.7487 11.7408 18.5629 11.7 18.3748 11.7C16.7624 11.7 15.4158 12.1802 14.4659 13.1415C13.5765 12.8068 12.5727 12.7 11.5424 12.7ZM17.5659 19C17.5685 18.9285 17.5697 18.8582 17.5697 18.7895C17.5697 16.8039 17.1512 15.1629 15.9758 14.0637C15.8775 13.9717 15.776 13.8856 15.6715 13.8049C16.3273 13.2846 17.2221 13 18.3748 13C19.7432 13.6316 21.7959 13.6316 23.1642 13C25.9011 13 27.2695 13.9474 27.2695 17.1053C27.2695 18.0526 26.9274 19 25.9011 19H17.5659ZM11.5424 14C9.96671 14.7368 7.60308 14.7368 6.02726 14C2.76958 14 1.3 16 1.3 19.1579C1.3 19.8982 1.69388 21 3.26969 21H14.6939C15.8758 21 16.2697 19.8947 16.2697 18.7895C16.2697 15.1053 14.6939 14 11.5424 14ZM20.7697 9.7C22.537 9.7 23.9697 8.26731 23.9697 6.5C23.9697 4.73269 22.537 3.3 20.7697 3.3C19.0024 3.3 17.5697 4.73269 17.5697 6.5C17.5697 8.26731 19.0024 9.7 20.7697 9.7ZM20.7697 11C23.255 11 25.2697 8.98528 25.2697 6.5C25.2697 4.01472 23.255 2 20.7697 2C18.2844 2 16.2697 4.01472 16.2697 6.5C16.2697 8.98528 18.2844 11 20.7697 11Z" fill="#2E2D29"/>
</svg>
