<svg width="21" height="22" viewBox="0 0 21 22" fill="none" xmlns="http://www.w3.org/2000/svg">
<path fill-rule="evenodd" clip-rule="evenodd" d="M3.70803 1.83227C3.22086 2.10546 2.70385 2.52446 2.45753 2.74684L2.45752 2.74686C2.40834 2.79126 2.31679 2.90881 2.20708 3.13369C2.10231 3.34844 1.9985 3.62463 1.90681 3.94678C1.72318 4.59197 1.5999 5.38001 1.5999 6.15118C1.5999 9.23627 3.46906 12.8072 6.18279 15.6349C8.90007 18.4664 12.3163 20.4 15.2498 20.4C17.2264 20.4 18.5968 19.3956 19.0392 18.9346C19.037 18.9369 19.0373 18.9365 19.0397 18.9326C19.0477 18.92 19.0786 18.8708 19.1212 18.7611C19.1708 18.6333 19.2197 18.467 19.2627 18.2765C19.3228 18.0101 19.3655 17.7228 19.3861 17.4666L15.633 15.0223C15.5456 15.0467 15.4409 15.0936 15.3172 15.1726C15.1179 15.2998 14.9079 15.4859 14.6932 15.7096C14.4801 15.9317 14.2785 16.1735 14.0898 16.4043C14.065 16.4347 14.0401 16.4654 14.015 16.4961C13.8602 16.6861 13.7037 16.8782 13.5717 17.0158C13.4585 17.1337 13.3022 17.2003 13.1388 17.2003C12.758 17.2003 12.3499 17.08 11.9561 16.9112C11.5537 16.7387 11.1223 16.4962 10.6828 16.2088C9.80351 15.6339 8.8508 14.8525 7.97284 14.008C7.09514 13.1638 6.27572 12.2408 5.67063 11.376C5.36817 10.9438 5.11167 10.5154 4.92881 10.1102C4.74932 9.71246 4.62212 9.2966 4.62212 8.90097C4.62212 8.74611 4.68199 8.59725 4.78922 8.48553C5.05471 8.20888 5.69258 7.54349 6.19757 6.88573C6.45346 6.55243 6.65044 6.25255 6.75341 6.02454C6.78057 5.96442 6.79647 5.91939 6.80562 5.88804L4.23836 1.60781C4.1209 1.63088 3.94042 1.70195 3.70803 1.83227ZM4.09174 0.415815C4.44225 0.364783 4.9284 0.425315 5.20891 0.892983L7.8223 5.25012C7.99401 5.46693 8.02875 5.72004 8.01413 5.92174C7.99864 6.13541 7.92674 6.34201 7.84705 6.51846C7.68613 6.87477 7.4213 7.26234 7.14941 7.61648C6.70429 8.19627 6.17355 8.77107 5.84798 9.11441C5.87699 9.24926 5.93222 9.41634 6.02259 9.61659C6.16547 9.9332 6.37902 10.2953 6.65382 10.688C7.20323 11.4732 7.96715 12.3375 8.80472 13.1432C9.64204 13.9485 10.5366 14.6795 11.3395 15.2045C11.7412 15.4671 12.1097 15.6714 12.4289 15.8083C12.6139 15.8876 12.7693 15.9385 12.8961 15.9679C12.9512 15.9017 13.0125 15.8265 13.0813 15.7422C13.1068 15.711 13.1332 15.6786 13.1608 15.6448C13.3514 15.4116 13.5787 15.1379 13.8274 14.8787C14.0744 14.6213 14.3593 14.3605 14.6713 14.1612C14.9812 13.9633 15.3578 13.8005 15.7777 13.8005C15.8939 13.8005 16.0077 13.8343 16.1051 13.8977L20.3273 16.6475C20.4974 16.7583 20.5999 16.9474 20.5999 17.1503C20.5999 17.5686 20.5359 18.0855 20.4332 18.5406C20.3816 18.7695 20.3172 18.9962 20.2398 19.1954C20.1684 19.3793 20.0636 19.6003 19.9049 19.7656C19.2916 20.4046 17.6254 21.6 15.2498 21.6C11.8501 21.6 8.14136 19.4089 5.31699 16.4658C2.48907 13.5191 0.399902 9.66556 0.399902 6.15118C0.399902 5.26233 0.540465 4.3638 0.752645 3.61829C0.858863 3.24508 0.985949 2.89989 1.12858 2.60753C1.26627 2.3253 1.43863 2.05002 1.65338 1.85615M4.09174 0.415815C3.7558 0.464726 3.4116 0.622699 3.12109 0.78561L4.09174 0.415815ZM3.12109 0.78561C2.52629 1.11916 1.93492 1.60196 1.6534 1.85613L3.12109 0.78561Z" fill="#2E2D29"/>
</svg>
