<svg width="24" height="24" viewBox="0 0 24 24" fill="none" xmlns="http://www.w3.org/2000/svg">
<path d="M20.6382 6.07209H18.4493V3.47209C18.4493 2.87209 17.9281 2.27209 17.1985 2.27209H6.67096C5.94133 2.27209 5.42017 2.77209 5.42017 3.47209V6.07209H3.33551C2.60588 6.07209 2.08472 6.57209 2.08472 7.17209V14.1721C2.08472 14.7721 2.60588 15.3721 3.33551 15.3721H5.5244V20.8721C5.5244 21.4721 6.04556 22.0721 6.77519 22.0721H17.4069C18.0323 22.0721 18.6577 21.5721 18.6577 20.8721V15.3721H20.8466C21.472 15.3721 22.0974 14.8721 22.0974 14.1721V7.17209C21.7847 6.57209 21.2636 6.07209 20.6382 6.07209ZM16.5731 20.1721H7.29636V12.0721H16.5731V20.1721ZM7.29636 8.27209V4.07209H16.5731V8.27209H7.29636Z" fill="#2E2D29"/>
<path d="M14.28 13.4H9.58948C9.06831 13.4 8.75562 13.8 8.75562 14.2C8.75562 14.6 9.17255 15 9.58948 15H14.1757C14.6969 15 15.0096 14.6 15.0096 14.2C15.0096 13.8 14.8011 13.4 14.28 13.4Z" fill="#2E2D29"/>
<path d="M14.28 16.3H9.58948C9.06831 16.3 8.75562 16.7 8.75562 17.1C8.75562 17.5 9.17255 18 9.58948 18H14.1757C14.6969 18 15.0096 17.6 15.0096 17.2C15.0096 16.8 14.8011 16.3 14.28 16.3Z" fill="#2E2D29"/>
</svg>
