<svg width="23" height="17" viewBox="0 0 23 17" fill="none" xmlns="http://www.w3.org/2000/svg">
<path d="M22.576 7.73958L13.0369 0.11336C12.7189 -0.104532 12.0829 0.00441431 11.765 0.331253C11.447 0.767037 11.553 1.31177 11.871 1.63861L19.3963 7.63064H0.953917C0.423963 7.63064 0 8.06642 0 8.50221C0 9.04694 0.423963 9.48272 0.953917 9.48272H19.3963L11.977 15.3658C11.553 15.6926 11.553 16.2374 11.871 16.6732C12.0829 16.8911 12.2949 17 12.6129 17C12.8249 17 13.0369 16.8911 13.1429 16.7821L22.682 9.15588C22.894 8.93799 23 8.61115 23 8.39326C22.894 8.17537 22.788 7.95748 22.576 7.73958Z" fill="#2E2D29"/>
</svg>
