<svg width="24" height="24" viewBox="0 0 24 24" fill="none" xmlns="http://www.w3.org/2000/svg">
<path fill-rule="evenodd" clip-rule="evenodd" d="M12 23.5C12.4547 23.5 12.8323 23.3429 13.0901 23.2011C13.3584 23.0535 13.599 22.8656 13.8067 22.6787C14.2215 22.3054 14.6372 21.8146 15.0343 21.2824C15.8356 20.2084 16.6969 18.7804 17.4843 17.2806C18.2744 15.7756 19.0135 14.1535 19.5594 12.6761C20.0852 11.2529 20.5 9.78695 20.5 8.66667C20.5 4.08822 16.6246 0.5 12 0.5C7.37539 0.5 3.5 4.08822 3.5 8.66667C3.5 9.84159 3.8678 11.326 4.36648 12.7876C4.8781 14.2872 5.57796 15.9061 6.34556 17.3997C7.10942 18.886 7.96618 20.2987 8.8055 21.3632C9.22261 21.8922 9.6713 22.3814 10.1376 22.7522C10.5636 23.0909 11.2127 23.5 12 23.5ZM19 8.66667C19 12 13.75 22 12 22C9.8125 22 5 12.3486 5 8.66667C5 4.98477 8.13401 2 12 2C15.866 2 19 4.98477 19 8.66667ZM12 12C13.6569 12 15 10.6569 15 9C15 7.34315 13.6569 6 12 6C10.3431 6 9 7.34315 9 9C9 10.6569 10.3431 12 12 12Z" fill="#2E2D29"/>
</svg>
